# xmcd CD database file
#
# Track frame offsets:
#	150
#	21635
#	40140
#	56282
#	85610
#	105270
#	120902
#	140447
#	153625
#	168195
#	184995
#
# Disc length: 2692 seconds
#
# Revision: 1
# Processed by: cddbd v1.5.2PL0 Copyright (c) Steve Scherf et al.
# Submitted via: CDex 1.70beta2
#
DISCID=820a820b
DTITLE=ANDY EGERT BLUES BAND - FIRE ON THE CROSSROAD
DYEAR=2005
DGENRE=Blues
TTITLE0=Andy Egert Blues Band - Big leggend woman
TTITLE1=Andy Egert Blues Band - You don't love me
TTITLE2=Andy Egert Blues Band - Johnny guitar
TTITLE3=Andy Egert Blues Band - 12 Days of rain
TTITLE4=Andy Egert Blues Band - Talk to me mama
TTITLE5=Andy Egert Blues Band - Kindhearted woman
TTITLE6=Andy Egert Blues Band - Hear me calling
TTITLE7=Andy Egert Blues Band - Good morning schoolgirl
TTITLE8=Andy Egert Blues Band - Fire on the crossroad
TTITLE9=Andy Egert Blues Band - What goes on in the dark
TTITLE10=Andy Egert Blues Band - Mojo boogie
EXTD=YEAR: 2005
EXTT0=
EXTT1=
EXTT2=
EXTT3=
EXTT4=
EXTT5=
EXTT6=
EXTT7=
EXTT8=
EXTT9=
EXTT10=
PLAYORDER=
